<svg width="30" height="31" viewBox="0 0 30 31"  xmlns="http://www.w3.org/2000/svg">
<path d="M26.7857 0.875H3.21429C1.43973 0.875 0 2.31473 0 4.08929V27.6607C0 29.4353 1.43973 30.875 3.21429 30.875H26.7857C28.5603 30.875 30 29.4353 30 27.6607V4.08929C30 2.31473 28.5603 0.875 26.7857 0.875ZM18.5692 26.5692C18.0067 26.6696 17.7991 26.3214 17.7991 26.0335C17.7991 25.6719 17.8125 23.8237 17.8125 22.3304C17.8125 21.2857 17.4643 20.6228 17.0558 20.2746C19.5335 20 22.1451 19.6585 22.1451 15.3795C22.1451 14.1607 21.7098 13.5513 21 12.7679C21.1138 12.4799 21.4955 11.2946 20.8862 9.75446C19.9554 9.46652 17.8259 10.9531 17.8259 10.9531C16.942 10.7054 15.9844 10.5781 15.0402 10.5781C14.096 10.5781 13.1384 10.7054 12.2545 10.9531C12.2545 10.9531 10.125 9.46652 9.1942 9.75446C8.58482 11.2879 8.95982 12.4732 9.08036 12.7679C8.37054 13.5513 8.03571 14.1607 8.03571 15.3795C8.03571 19.6384 10.5335 20 13.0112 20.2746C12.6897 20.5625 12.4018 21.058 12.3013 21.7679C11.6652 22.0558 10.0379 22.5513 9.06696 20.8371C8.45759 19.779 7.35937 19.692 7.35937 19.692C6.27455 19.6786 7.28571 20.375 7.28571 20.375C8.00893 20.7098 8.51786 21.9955 8.51786 21.9955C9.16741 23.9844 12.2746 23.3147 12.2746 23.3147C12.2746 24.2455 12.2879 25.7589 12.2879 26.0335C12.2879 26.3214 12.0871 26.6696 11.5179 26.5692C7.09821 25.0893 4.00446 20.8839 4.00446 15.9687C4.00446 9.82143 8.70536 5.15402 14.8527 5.15402C21 5.15402 25.9821 9.82143 25.9821 15.9687C25.9888 20.8839 22.9888 25.096 18.5692 26.5692ZM12 22.4777C11.8728 22.5045 11.7522 22.4509 11.7388 22.3638C11.7254 22.2634 11.8125 22.1763 11.9397 22.1496C12.067 22.1362 12.1875 22.1897 12.2009 22.2768C12.221 22.3638 12.1339 22.4509 12 22.4777ZM11.3638 22.4174C11.3638 22.5045 11.2634 22.5781 11.1295 22.5781C10.9821 22.5915 10.8817 22.5179 10.8817 22.4174C10.8817 22.3304 10.9821 22.2567 11.1161 22.2567C11.2433 22.2433 11.3638 22.317 11.3638 22.4174ZM10.4464 22.3437C10.4196 22.4308 10.2857 22.471 10.1719 22.4308C10.0446 22.404 9.95759 22.3036 9.98438 22.2165C10.0112 22.1295 10.1451 22.0893 10.2589 22.1161C10.3929 22.1563 10.4799 22.2567 10.4464 22.3437ZM9.62277 21.9821C9.5625 22.0558 9.43527 22.0424 9.33482 21.942C9.23437 21.8549 9.20759 21.7277 9.27455 21.6674C9.33482 21.5937 9.46205 21.6071 9.5625 21.7076C9.64955 21.7946 9.68304 21.9286 9.62277 21.9821ZM9.01339 21.3728C8.95313 21.4129 8.83929 21.3728 8.76562 21.2723C8.69196 21.1719 8.69196 21.058 8.76562 21.0112C8.83929 20.9509 8.95313 20.9978 9.01339 21.0982C9.08705 21.1987 9.08705 21.3192 9.01339 21.3728ZM8.57813 20.7232C8.51786 20.7835 8.41741 20.75 8.34375 20.683C8.27009 20.596 8.2567 20.4955 8.31696 20.4487C8.37723 20.3884 8.47768 20.4219 8.55134 20.4888C8.625 20.5759 8.63839 20.6763 8.57813 20.7232ZM8.12946 20.2277C8.10268 20.2879 8.01562 20.3013 7.94196 20.2545C7.85491 20.2143 7.81473 20.1406 7.84152 20.0804C7.8683 20.0402 7.94196 20.0201 8.02902 20.0536C8.11607 20.1004 8.15625 20.1741 8.12946 20.2277Z" />
</svg>
