<svg width="31" height="31" viewBox="0 0 31 31" xmlns="http://www.w3.org/2000/svg">
<path d="M28.1071 0.875H2.38616C1.20759 0.875 0.25 1.84598 0.25 3.03795V28.7121C0.25 29.904 1.20759 30.875 2.38616 30.875H28.1071C29.2857 30.875 30.25 29.904 30.25 28.7121V3.03795C30.25 1.84598 29.2857 0.875 28.1071 0.875ZM9.31696 26.5893H4.87054V12.2723H9.32366V26.5893H9.31696ZM7.09375 10.317C5.66741 10.317 4.51562 9.15848 4.51562 7.73884C4.51562 6.3192 5.66741 5.16071 7.09375 5.16071C8.51339 5.16071 9.67187 6.3192 9.67187 7.73884C9.67187 9.16518 8.52009 10.317 7.09375 10.317ZM25.9844 26.5893H21.5379V19.625C21.5379 17.9643 21.5045 15.8281 19.2277 15.8281C16.9107 15.8281 16.5558 17.6362 16.5558 19.5045V26.5893H12.1094V12.2723H16.375V14.2277H16.4353C17.0312 13.1027 18.4844 11.9174 20.6473 11.9174C25.1473 11.9174 25.9844 14.8839 25.9844 18.7411V26.5893Z" />
</svg>
